<svg width="1670" height="1220" viewBox="0 0 1670 1220" fill="none" xmlns="http://www.w3.org/2000/svg">
<path d="M1193.27 1219.12H1137.64C1131.82 1219.12 1126.35 1216.15 1123.26 1211.15L854.64 779.197C848.341 769.093 838.476 768.023 834.553 768.023C830.631 768.023 820.647 769.093 814.466 779.197L545.848 1211.15C542.757 1216.15 537.29 1219.12 531.466 1219.12H475.84C462.528 1219.12 454.446 1204.5 461.459 1193.2L745.648 736.405C764.903 705.381 798.183 686.957 834.672 686.957C871.162 686.957 904.442 705.381 923.697 736.405L1207.89 1193.2C1214.9 1204.5 1206.82 1219.12 1193.5 1219.12H1193.27Z" fill="black"/>
<path d="M1346.24 1219.13H1290.61C1284.78 1219.13 1279.32 1216.15 1276.23 1211.16L871.04 559.662C862.958 546.705 849.765 539.336 834.551 539.336C819.337 539.336 806.025 546.705 798.061 559.662L392.875 1211.16C389.785 1216.15 384.317 1219.13 378.493 1219.13H322.867C309.555 1219.13 301.473 1204.51 308.486 1193.21L729.124 516.87C751.945 480.141 791.287 458.27 834.551 458.27C856.183 458.27 876.746 463.737 894.931 473.841C912.997 483.944 928.568 498.565 939.978 516.87L1360.62 1193.21C1367.63 1204.51 1359.55 1219.13 1346.24 1219.13Z" fill="black"/>
<path d="M1499.09 1219.12H1443.46C1437.64 1219.12 1432.17 1216.15 1429.08 1211.15L887.443 340.11C875.795 321.448 856.54 310.75 834.551 310.75C812.562 310.75 793.308 321.448 781.66 340.11L240.024 1211.15C236.934 1216.15 231.466 1219.12 225.642 1219.12H170.017C156.704 1219.12 148.622 1204.5 155.634 1193.21L712.841 297.2C738.633 255.716 782.848 230.516 831.58 229.565C882.926 228.496 930.707 255.835 957.926 299.458L1513.71 1193.09C1520.72 1204.38 1512.64 1219 1499.32 1219L1499.09 1219.12Z" fill="black"/>
<path d="M1652.05 1219.12H1596.43C1590.6 1219.12 1585.14 1216.15 1582.05 1211.16L903.843 120.568C888.629 96.0822 863.431 82.0561 834.549 82.0561C805.666 82.0561 780.469 96.0822 765.255 120.568L87.0514 1211.16C83.9611 1216.15 78.4933 1219.12 72.6693 1219.12H17.0439C3.73177 1219.12 -4.35084 1204.5 2.66178 1193.21L696.436 77.6581C726.388 29.6366 777.972 0.871094 834.668 0.871094C891.363 0.871094 942.947 29.5177 972.9 77.6581L1666.67 1193.21C1673.69 1204.5 1665.6 1219.12 1652.29 1219.12H1652.05Z" fill="black"/>
</svg>
