<?xml version="1.0" encoding="UTF-8"?>
<svg xmlns="http://www.w3.org/2000/svg" version="1.1" viewBox="0 0 1000 1000">
  <defs>
    <style>
      .cls-1, .cls-2, .cls-3 {
        fill-rule: evenodd;
      }

      .cls-1, .cls-4 {
        fill: #030f1c;
      }

      .cls-2, .cls-5 {
        fill: #f7f7f7;
      }

      .cls-3, .cls-6 {
        fill: #98efe4;
      }
    </style>
  </defs>
  <!-- Generator: Adobe Illustrator 28.7.0, SVG Export Plug-In . SVG Version: 1.2.0 Build 136)  -->
  <g>
    <g id="Walrus">
      <g>
        <g>
          <path class="cls-3" d="M557.4,460.1l-11.8,14.6,45.9,46.1c13.8-3.6,28.1-10.7,41.7-22.7,42.7-37.6,4.7-91-21.4-60-1.8,2.1-6.3-25.3-18.8-20.1-8.8,3.7,6.2,26.8-20.1,39.1-4.2,1.9-9.1,3.1-15.4,3.1Z"/>
          <path class="cls-4" d="M591.4,523.2c-.6,0-1.2-.2-1.7-.7l-45.9-46.1c-.9-.9-.9-2.3-.2-3.2l11.8-14.6c.5-.6,1.1-.9,1.9-.9,5.6,0,10.2-.9,14.4-2.9,15.3-7.2,15.4-17.9,15.4-26.5,0-5.5,0-10.6,4.7-12.6,2.7-1.1,5.2-1.1,7.7,0,6.2,2.6,9.6,11.4,11.9,17.2.2.4.3.9.5,1.3,6.4-6.4,13.9-9,21.3-7.3,9.3,2.1,17.2,11,20.2,22.6,4.4,17.3-2.6,36.2-18.8,50.4-13,11.5-27.4,19.3-42.7,23.2-.2,0-.4,0-.6,0ZM548.8,474.6l43.4,43.6c14.1-3.9,27.3-11.2,39.4-21.8,14.8-13,21.2-30.1,17.3-45.6-2.5-9.9-9-17.4-16.6-19.1-6.4-1.5-13.1,1.4-18.7,8-.6.7-1.6,1.1-2.5.9-1.9-.3-2.5-2-4.1-5.9-1.9-4.8-5-12.7-9.3-14.5-1.2-.5-2.5-.5-3.9.1-1.7.7-1.8,3.6-1.8,8.2,0,8.9-.2,22.4-18.2,30.9-4.6,2.1-9.5,3.2-15.3,3.3l-9.8,12Z"/>
        </g>
        <g>
          <path class="cls-1" d="M572.5,458.8c3.2,15.4,11,27.6,19.1,35.2,12.8,11.7,24.3,16.2,24.3,16.4-6.8,4.1-8.3,3.1-15.6,6.2-1.8.8-1.1-2.3-2.8-5.8-6.8-16.2-12.5-21.3-27.1-31.2-7.6-5.2-12.8-8.3-14.8-17.5-.3-1.9,5.2-1.9,9.6-2.6,3.9-.8,6.7-2.4,7.1-.6Z"/>
          <path class="cls-4" d="M599.9,519.1c-.6,0-1-.2-1.4-.3-1.5-.7-1.8-2.3-2.1-3.7-.2-1-.5-2.1-1-3.3-6.7-15.9-12.2-20.6-26.3-30.2l-1.2-.8c-7-4.8-12.5-8.5-14.6-18.2,0,0,0,0,0-.1-.2-.9,0-1.8.6-2.5,1.3-1.8,4.1-2.1,7.9-2.5,1-.1,2-.2,3-.4,1-.2,2-.5,2.9-.8,2.1-.6,3.8-1.1,5.4-.3.6.3,1.3.9,1.6,2.1,0,0,0,0,0,.1,2.8,13.2,9.5,25.5,18.4,34,7.1,6.4,14.8,11.7,23,15.6.9.4,2.1,1,2.1,2.5s-.4,1.6-1.2,2.1c-4.3,2.6-6.7,3.3-9.4,4.1-1.8.5-3.6,1.1-6.5,2.3-.5.2-1,.3-1.4.3ZM599.4,514.4s0,0,0,0c0,0,0,0,0,0ZM595.2,500.3c1.6,2.7,3.1,5.9,4.6,9.5.7,1.4,1,2.8,1.2,3.9,2.2-.9,3.9-1.4,5.4-1.8,1.5-.4,2.7-.8,4.3-1.5-5.4-2.9-10.6-6.3-15.5-10.2ZM558.4,462.8c1.8,6.9,5.8,9.6,12.3,14l1.2.8c2.9,2,5.5,3.8,7.8,5.5-4.2-6.8-7.5-14.5-9.3-22.6-.4.1-.9.2-1.3.4-1,.3-2.1.6-3.3.9,0,0,0,0-.1,0-1,.2-2.1.3-3.2.4-1.3.1-3,.3-4.1.6ZM571.3,460.4h0,0Z"/>
        </g>
        <g>
          <path class="cls-1" d="M625.8,680.1c21.7,4.1,41.2,10,41.2,14.3s-16.3,3.4-37.4,3.4-38.7.3-38.7-5,13.2-16.7,34.9-12.7Z"/>
          <path class="cls-4" d="M643.7,699.1c-1.9,0-4,0-6.2,0-2.6,0-5.2,0-7.9,0h-3.6c-9.5,0-18.5,0-24.9-.6-5.3-.5-11.4-1.6-11.4-5.7s1.7-5.2,4.8-7.7c2.8-2.3,13.3-9.7,31.6-6.3,0,0,0,0,0,0,12.7,2.4,42.2,8.8,42.2,15.5s-.3,1.5-.9,2c-2.4,2.4-9.9,2.7-23.7,2.7ZM629.5,696.5c2.7,0,5.4,0,8,0,13.3,0,25.9.1,28-2,.1-.1.1-.2.1-.2,0-2.2-12.8-7.8-40.1-13-17.2-3.1-27,3.6-29.5,5.8-2.8,2.4-3.9,4.6-3.9,5.7s.9,2.3,9.1,3.1c6.3.6,15.2.6,24.6.6h3.6Z"/>
        </g>
        <g>
          <path class="cls-1" d="M422.2,683.4c-22.4,3.7-42.3,9.2-42.5,13.3,0,4.1,16.9,3.2,38.6,3.2s39.9.3,39.9-4.7-13.6-15.7-36-11.8Z"/>
          <path class="cls-4" d="M401.7,701.3c-13,0-20.2-.4-22.4-2.6-.6-.6-.8-1.2-.8-2,.3-6.8,33.4-12.9,43.6-14.6,15.7-2.7,27.5,1.6,33.4,6.5,2.6,2.2,4.1,4.6,4.1,6.6,0,3.8-5.9,4.9-11.7,5.4-6.6.6-15.5.6-25.7.6h-3.7c-3.2,0-6.4,0-9.4,0-2.6,0-5,0-7.3,0ZM381,696.7s0,0,0,.1c2,2,14.6,1.9,27.9,1.9,3,0,6.1,0,9.4,0h3.7c9.8,0,19,0,25.5-.6,8.7-.8,9.4-2.4,9.4-2.9,0-.9-.8-2.6-3.2-4.6-5.4-4.6-16.5-8.5-31.3-6,0,0,0,0,0,0-26.7,4.5-41.2,9.9-41.4,12.1h0ZM422.2,683.4h0,0Z"/>
        </g>
        <path class="cls-3" d="M525.1,352.2c-4.4-30.3-32.5-63.4-69.4-48.5-8.8,3.6-25,15.7-31,36.3-8.6,30-11.2,88.1-16.1,119.1-.6,3.6-9.4,5.4-14,11.7-8,10.7-14.9,28.7-16.1,39.6-2.4,23.4,12.3,55.5,12,63.3-.5,15.1-3.6,44-8.9,56-6.8,15.3,2.3,24.7,14.6,34.4,9.2,7.3,20.3,15.3,28.1,23,7.6,7.5,13.8,11.4,23.9,11.4s16.9.3,27.1-.5c9.6-.8,17.7-1.3,17.8-5.7.3-10.4-2.8-18.3-5.5-23-4.4-8-25.8-25.5-21.6-21.1,0,0,47.5,23.9,87.5-1.6.2-.2,14.8,22.2,18.5,26.1,7.3,8,13.1,15.4,18.8,19.6,19.1,14.8,58.1-33.4,63.9-48,4.2-10.7,3.9-20.1-4.2-21.9-11-2.4-28.6,2.4-37.6,5.7-3.6-14.3-8.8-32-10.1-34.2-1-1.9,15.3-35.9-1.6-76.1-10.5-25.2-24.5-36.8-44.5-47.9.3,1.3-3.4-28.9-4.5-36.7-2.4-15.4-1.1-73.7-27.1-81Z"/>
        <path class="cls-4" d="M407.3,464.1c-.1,0-.2,0-.4,0-1.3-.2-2.2-1.4-2-2.7,5-32,7.9-56.5,10.3-76.3,1.6-13.7,3.1-25.5,4.7-35.7,3.1-20.3,14.3-36.9,30.6-45.7,13.7-7.4,29.6-7.9,43.5-1.4,19,8.7,30.9,26.2,34.3,50.4.2,1.3-.7,2.5-2,2.7-1.3.2-2.5-.7-2.7-2-3.2-22.8-13.8-38.5-31.6-46.7-12.7-5.9-26.6-5.4-39.2,1.3-15,8-25.3,23.4-28.2,42.2-1.6,10.1-3,21.9-4.6,35.5-2.4,19.8-5.3,44.3-10.3,76.4-.2,1.2-1.2,2-2.4,2Z"/>
        <path class="cls-4" d="M455.1,700.8c-1.3,0-2.4,0-3.1,0-11.7-.5-13.6-.9-20.8-6.7-2.4-1.9-5.4-4.3-8.6-7-10.5-8.5-23.6-19.2-31.4-24.2-16.3-10.7-18.8-23.7-8.2-42,.8-1.4,1.5-9.7,2.1-17.6.8-9.8,1.8-22,3.7-35.2.2-1.3,1.4-2.2,2.7-2,1.3.2,2.2,1.4,2,2.7-1.9,13.1-2.9,25.2-3.7,34.9-1,12.1-1.5,17.5-2.8,19.7-9.4,16.2-7.5,26.2,6.7,35.5,8,5.1,21.2,15.9,31.8,24.5,3.2,2.6,6.2,5,8.6,6.9,6.2,5,6.8,5.2,18.1,5.6,4.3.3,27.5-.6,36.3-1.1.2,0,1.1-.6,1.8-2.7,2-5.8.4-17-10.5-29.3-4.6-5.2-9.2-8.4-12.3-10.5-1.4-1-2.5-1.7-3.2-2.4-.9-.9-.9-2.5,0-3.4.9-.9,2.5-.9,3.4,0,.4.4,1.4,1.1,2.5,1.8,3.1,2.1,8.2,5.6,13.2,11.3,12.9,14.6,14.1,27.9,11.2,34.9-1.3,3.1-3.3,4.9-5.7,5.1-6.9.4-25.7,1.2-33.8,1.2Z"/>
        <path class="cls-4" d="M508.6,660.3c-21.2,0-39.8-6.7-48.5-13.2-1.1-.8-1.3-2.3-.5-3.4.8-1.1,2.3-1.3,3.4-.5,10.6,7.9,39.3,16.5,67.1,9.7,36.8-9,64.4-35.2,73.8-69.9,9.4-34.7-1.1-71.1-28-97.2-2-1.8-4.8-4.2-7.8-6.5,0,0,0,0,0,0-.8-.7-8.3-6-11.2-7.9-1.1-.8-1.9-1.3-2.1-1.5-1.1-.8-1.3-2.3-.6-3.4.8-1.1,2.3-1.3,3.4-.6.3.2,1,.7,2.1,1.5,6.4,4.5,10.6,7.4,11.5,8.2,3,2.4,6,4.8,8.1,6.8,28.3,27.4,39.2,65.5,29.3,102-9.9,36.5-38.8,63.9-77.3,73.3-7.6,1.9-15.3,2.7-22.6,2.7Z"/>
        <path class="cls-4" d="M599.1,697.3c-2.6,0-5.2-.5-7.6-1.5-7.1-2.9-20.3-18.1-40.5-46.4-.8-1.1-.5-2.6.6-3.4,1.1-.8,2.6-.5,3.4.6,25.3,35.7,34.9,43.3,38.4,44.8,12.8,5.4,31.6-9.6,43.7-24,14.5-17.3,20.9-34,17.8-38.8-6.7-10.5-27.6-3.1-36.6,0-4.5,1.6-6.5,2.3-7.5-.2-2-6-7.3-22.5-10.1-33.2-.3-1.3.4-2.6,1.7-2.9,1.3-.3,2.6.4,2.9,1.7,2.6,9.5,7.1,23.8,9.3,30.8.6-.2,1.3-.5,2-.7,10-3.5,33.4-11.8,42.2,1.9,5.5,8.5-5,28.8-18.2,44.5-11.6,13.8-27.7,26.8-41.6,26.8Z"/>
        <path class="cls-4" d="M601.8,637.8c-.6,0-1.3-.2-1.7-.7-.9-1-.9-2.5,0-3.4,3.8-3.7,8.3-6.3,15.4-9.1,1.2-.5,2.6.1,3.1,1.4s-.1,2.6-1.4,3.1c-6.5,2.6-10.5,4.9-13.8,8.1-.5.4-1.1.7-1.7.7Z"/>
        <path class="cls-4" d="M461.5,647.7c-.3,0-.6,0-.8-.1-1.2-.5-1.9-1.8-1.4-3.1.4-1.2,4-14.6,6.1-22.7.3-1.3,1.7-2.1,2.9-1.7,1.3.3,2.1,1.7,1.7,2.9-.6,2.2-5.6,21.3-6.2,23.1-.4,1-1.3,1.6-2.3,1.6Z"/>
        <path class="cls-1" d="M563.4,659.2c-1-2.8,11.5-18.7,13.8-20.9,5.5-5.4,23.2-23.4,30.2-25.2,1.3-.3-3.9-17.8-4.4-18.5-1.1,2.8-15.6,23.7-17.2,25.5-3.9,4.1-6.5,8.3-12.2,12.3-7.1,5-12.8,13.3-21.4,15.4-.3,0,11.7,13.1,11.2,11.4Z"/>
        <path class="cls-4" d="M599.4,697.6c0,0-.2,0-.2,0-4.6-.5-6.5-2.7-7.3-4.5-.9-1.9-3.4-7.9,11.8-28,8.2-10.8,19.4-21.2,29.4-27.2,1.1-.7,2.6-.3,3.3.8.7,1.1.3,2.6-.8,3.3-9.5,5.7-20.2,15.7-28,26-12.5,16.6-11.7,22-11.2,23.2.2.4.6,1.4,3.3,1.7,1.3.1,2.3,1.3,2.1,2.6-.1,1.2-1.2,2.2-2.4,2.2Z"/>
        <g>
          <path class="cls-1" d="M434.7,357.6c-2.9,1.1-9.4,15.9-3.4,14.8,2.4-.5,3.6-10.5,7.5-11.5,2.1-.6,4.5-1.8,6-2.3,1.6-.5,2.1-.3,3.1,1.8.8,1.6,4.7,11.2,7.1,10.2,3.1-1.3,21.9-6.8,22.4-6.8s-2.9-11-2.8-15.3c0-.3-.2-7-.3-6.8l-39.6,15.9Z"/>
          <path class="cls-4" d="M430.7,373.7c-1.5,0-2.5-.8-2.9-2.2-1-3.4,3-13.7,6.5-15.1l39.6-15.9c.3-.1.7-.1,1,0,.7.3,1.1.5,1.1,8-.1,2.6,1.3,8.3,2.1,11.7.9,3.6.9,3.7.4,4.3-.2.3-.5.4-.9.5-1.3.3-19.1,5.5-22.1,6.7-2.7,1.1-5.2-2.9-8.3-9.8-.2-.5-.4-.8-.5-1-.5-1.1-.7-1.3-.8-1.3,0,0-.2,0-.8.2-.5.2-1.3.5-2.1.8-1.2.5-2.6,1-3.9,1.4-1.6.4-2.9,3.7-3.8,6.1-1.1,2.9-2,5.1-3.8,5.5-.3,0-.6,0-.9,0ZM473.2,343.5l-38,15.3s0,0,0,0c-1.6.6-5.8,9.1-5,12,0,.3.1.5.9.3.5-.3,1.3-2.4,1.9-3.9,1.3-3.2,2.7-6.9,5.5-7.6,1.1-.3,2.4-.9,3.6-1.4.9-.3,1.7-.7,2.3-.9,2.6-.8,3.6.2,4.6,2.5,0,.2.3.6.5,1.1,3.1,6.8,4.5,8.3,5.1,8.5,2.5-1,16.7-5.3,21.3-6.5-.1-.5-.3-1.3-.5-2-.9-3.8-2.3-9.5-2.1-12.4,0-.4,0-3.1-.2-4.9ZM434.7,357.6h0,0Z"/>
        </g>
        <g>
          <path class="cls-1" d="M480.1,340.2c5-.3,11.8-.6,19-1.5,4.5-.5,6.7.5,7.3.8,3.1,2.1,2.3,1.9,3.2,1.1,1-1,2.1-2.8,6.5-3.1,2.1-.2,11.5-1.5,17.7-1.8,5.4-.5,6.8.2,8,4.9.6,3.2,1.9,9.1,2.1,12.3.2,3.9-2.9,4.4-3.9,4.7-3.7.6-14.6,2.3-21.9,2.6-3.7.2-3.6-.6-4.9-2.4-.8-1-2.6-1.1-3.2-.2-1,1.3-1.6,4.1-6.3,4.1s-12.7,1.6-19.1,2.1c-4.9.3-7.6.3-9.1-1.6-1-1.1-1.3-3.1-1.6-5.2-.6-2.4-1.3-6.3-1.6-8.4-.6-4.9-.2-8,8-8.4Z"/>
          <path class="cls-4" d="M480.8,365.3c-3,0-5-.5-6.4-2.3-1.2-1.4-1.5-3.6-1.9-5.7-.7-2.6-1.4-6.8-1.6-8.5-.3-2.4-.5-5.1,1.1-7,1.4-1.7,4-2.6,8-2.9.9,0,1.9-.1,3-.2,4.5-.3,10.1-.6,15.9-1.3,3.4-.4,6.1,0,8,.9s.1,0,.2,0c.7.5,1.2.8,1.6,1.1,0,0,.1,0,.2.1,0,0,.2-.2.2-.2,1-1,2.6-2.8,7-3.1.6,0,2-.2,3.8-.4,3.8-.5,9.6-1.1,13.9-1.4,5.7-.5,7.9.3,9.3,5.8l.4,1.8c.7,3.4,1.6,8,1.8,10.8.2,4.5-3.3,5.6-4.5,5.9-.1,0-.2,0-.3,0,0,0-.1,0-.2,0-4.1.7-14.9,2.3-22.1,2.6-3.5.2-4.4-.6-5.5-2.3-.1-.2-.3-.4-.5-.7-.1-.2-.5-.3-.9-.3-.2,0-.3,0-.3,0-.2.2-.3.5-.5.7-.9,1.5-2.3,3.9-6.9,3.9s-5,.4-8.6.9c-3.4.4-7.3,1-10.4,1.2-1.4,0-2.7.2-3.8.2ZM501.5,339.9c-.7,0-1.5,0-2.3.1-5.8.7-11.5,1-16,1.3-1.1,0-2.1.1-3,.2,0,0,0,0,0,0-3.3.2-5.3.8-6.2,1.9-.9,1.1-.9,2.8-.5,5.1.3,1.6.9,5.8,1.6,8.3,0,0,0,0,0,.1.3,1.7.6,3.7,1.3,4.6,1.1,1.4,3.2,1.5,8,1.2,3.1-.2,6.9-.7,10.3-1.2,3.9-.5,7.2-.9,9-.9,3.2,0,4-1.3,4.7-2.6.2-.3.4-.6.6-.9.4-.7,1.3-1.1,2.2-1.2,1.2,0,2.3.4,3,1.3.3.4.4.6.6.9.7,1,.8,1.2,3.2,1.1,7-.3,17.5-1.9,21.7-2.6,0,0,.2,0,.3,0,1.5-.4,2.7-1,2.6-3.3-.1-2.6-1.1-7.1-1.7-10.4l-.4-1.7c-.9-3.9-1.7-4.3-6.6-3.8-4.2.2-10,.9-13.8,1.4-1.8.2-3.2.4-3.9.4-3.4.3-4.5,1.4-5.3,2.3-.1.1-.3.3-.4.4s0,0,0,0c-.1,0-.2.2-.3.2-1.1,1.1-2,.5-3-.2-.3-.2-.8-.6-1.4-1-1.1-.5-2.5-.8-4.3-.8ZM480.1,340.2h0,0Z"/>
        </g>
        <g>
          <path class="cls-1" d="M478.5,343.9l22.2-2.1c1.8-.2,3.7,1,4.1,2.9l1.8,9.9c.5,1.8-.8,3.7-2.8,3.9l-22.1,1.9c-1.9.2-3.7-1-4.1-2.8l-1.9-9.9c-.3-1.9,1-3.7,2.8-3.9Z"/>
          <path class="cls-4" d="M481.4,361.1c-2.1,0-3.9-1.3-4.2-3.2l-1.9-9.9c-.2-1.1,0-2.3.8-3.2.6-.8,1.5-1.3,2.5-1.4l22.2-2.1c2-.2,4.3,1,4.7,3.4l1.8,9.9c.3,1,0,2.1-.6,3-.6.9-1.6,1.5-2.7,1.6l-22.1,1.9c-.1,0-.3,0-.4,0ZM501.1,342.4c0,0-.2,0-.3,0l-22.2,2.1h0c-.7,0-1.3.4-1.7,1-.5.6-.7,1.5-.6,2.3l1.9,9.9c.3,1.5,1.7,2.4,3.5,2.3l22.1-1.9c.8,0,1.4-.5,1.9-1.1.4-.6.6-1.4.4-2.1l-1.8-9.9c-.3-1.6-1.8-2.5-3.2-2.5ZM478.5,343.9h0,0Z"/>
        </g>
        <g>
          <path class="cls-1" d="M514.9,340.7l19.8-2.1c1.9-.2,3.7,1.1,4.1,2.9l1.9,9.9c.3,1.8-1,3.7-2.8,3.9l-20,1.9c-1.8.3-3.7-1-4.1-2.8l-1.8-9.9c-.3-1.9.8-3.7,2.8-3.9Z"/>
          <path class="cls-4" d="M517.4,357.9c-1.9,0-3.7-1.4-4-3.3l-1.8-9.9c-.2-1.2,0-2.3.7-3.2.6-.8,1.5-1.3,2.5-1.3l19.8-2.1c2.2-.2,4.3,1.3,4.7,3.4l1.9,9.9c.2,1.1,0,2.2-.8,3.1-.6.8-1.5,1.3-2.5,1.4l-20,1.9c-.2,0-.4,0-.6,0ZM535,339.1c0,0-.2,0-.3,0l-19.8,2.1s0,0,0,0c-.7,0-1.3.4-1.7.9-.5.6-.7,1.5-.5,2.3l1.8,9.9c.3,1.5,1.9,2.6,3.4,2.3l20-2c.6,0,1.2-.4,1.7-1,.5-.7.7-1.5.6-2.2l-1.9-9.9c-.3-1.4-1.6-2.5-3.2-2.5ZM514.9,340.7h0,0Z"/>
        </g>
        <path class="cls-5" d="M485.3,360.9c-.5,0-.9-.1-1.3-.4-1.1-.7-1.4-2.2-.6-3.3l10.2-15.1c.7-1.1,2.2-1.4,3.3-.6,1.1.7,1.4,2.2.6,3.3l-10.2,15.1c-.5.7-1.2,1.1-2,1.1Z"/>
        <path class="cls-5" d="M516.5,355.6c-.4,0-.9-.1-1.2-.4-1.1-.7-1.5-2.2-.8-3.3l7.1-11.7c.7-1.1,2.2-1.5,3.3-.8,1.1.7,1.5,2.2.8,3.3l-7.1,11.7c-.5.7-1.2,1.1-2,1.1Z"/>
        <path class="cls-5" d="M533.8,355.7c-.4,0-.8-.1-1.2-.3-1.1-.7-1.5-2.1-.9-3.3l3.9-6.8c.7-1.1,2.1-1.5,3.3-.9,1.1.7,1.5,2.1.9,3.3l-3.9,6.8c-.4.8-1.3,1.2-2.1,1.2Z"/>
        <path class="cls-1" d="M407.1,449.7c5.5-1.6,25.1-.3,46.1,15.1,3.9,2.8-10.2-1.8-24.2-3.1-12-1-24,1.6-24,1.1,0,0,1.6-11.5,2.1-13.1Z"/>
        <path class="cls-3" d="M423.8,523.2l14.8-30.7-28.2-30.7c-23.4,4.1-41.2,9.4-62.6,32.6-37,40.4,4.7,87.6,26.4,55.3,1.5-2.3,8.6,23.5,20.1,17.2,4.7-2.6,2.3-10.9,3.2-20.3.8-6.3,2.3-13.1,12-19,3.7-2.3,8.4-3.9,14.3-4.5Z"/>
        <path class="cls-4" d="M390.1,570.4c-.9,0-1.8-.1-2.7-.4-6.1-1.9-10.1-10-12.7-15.3-.1-.3-.3-.6-.4-.9-5.2,6.3-11.5,9.4-18,8.6-8.7-1-16.7-8.4-20.9-19.4-6.4-16.7-2.4-35.4,10.7-50.1,22.3-24.7,44.7-30.2,64-33.4,1.3-.2,2.5.7,2.8,2,.2,1.3-.7,2.5-2,2.8-18.5,3.1-40,8.3-61.2,31.9-11.8,13.3-15.5,30.2-9.8,45.2,3.5,9.2,10.2,15.6,17,16.4,5.6.6,11-2.5,15.5-9.2.5-.8,1.4-1.2,2.4-1.2,1.9.1,2.6,1.6,4.4,5.3,2.1,4.3,5.6,11.5,9.8,12.9,1.2.4,2.4.2,3.7-.5,2.3-1.2,3-5.7,3.8-10.8,1.3-8.3,3.1-19.6,13.2-27.6,3.8-3,8.9-4.1,15.5-4.9,1.3-.1,2.5.8,2.6,2.1.1,1.3-.8,2.5-2.1,2.6-5,.6-10,1.4-13,3.9-8.6,6.8-10.2,16.7-11.5,24.6-1,6.4-1.9,12-6.3,14.3-1.6.9-3.1,1.3-4.7,1.3ZM376.2,551.1s0,0,0,0c0,0,0,0,0,0Z"/>
        <path class="cls-4" d="M461.8,474.2c-.4,0-.8-.1-1.2-.3-15.7-9.1-33.7-12.1-53.4-9-1.3.2-2.5-.7-2.7-2-.2-1.3.7-2.5,2-2.7,20.9-3.4,39.9-.2,56.6,9.5,1.1.7,1.5,2.1.9,3.3-.4.8-1.2,1.2-2.1,1.2Z"/>
        <g>
          <path class="cls-2" d="M548.4,415.2c3.2,11.4,12.7,63.6,6.7,120.6-1.3,11.7-8.1,9.9-9.6,2.4-.6-3.6-.8-8.9-1.5-13.5-4.1-29.5-7.8-51.6-15.9-79.2-.3-1.5,1.1-2.3,2.8-4.2,2.4-2.8,5.5-7.6,4.7-9.9-.5-1.5-8.9-3.4-6.7-3.4,8.4,0,20.3-8.3,19.5-12.8Z"/>
          <path class="cls-4" d="M550.3,546.5c-3.3,0-6.2-3.1-7.1-7.9-.4-2.1-.6-4.5-.8-7.1-.2-2.2-.4-4.4-.7-6.5-4.2-30.5-7.9-52-15.8-78.8,0,0,0-.1,0-.2-.5-2.3.9-3.8,2.1-5,.4-.4.8-.8,1.2-1.3,2.5-2.8,4.1-5.9,4.3-7.2-.9-.5-2.7-1.1-3.5-1.4-2.1-.7-4-1.4-3.6-3.5,0-.3.5-2.1,2.8-2.1,5.4,0,12.8-4.1,15.9-7.8,1.1-1.3,1.2-2,1.2-2.2-.2-1.3.6-2.5,1.8-2.8,1.2-.3,2.5.5,2.9,1.7,2.8,9.9,12.9,62.7,6.7,121.5-1,9.3-5.3,10.5-7,10.6,0,0-.1,0-.2,0ZM530.6,445.2c7.9,26.9,11.7,48.6,15.9,79.1.3,2.2.5,4.5.7,6.7.2,2.5.4,4.8.7,6.6.6,2.8,1.9,4,2.4,4h0c.5,0,1.9-1.5,2.4-6.3,5.3-50.2-1.4-95.8-5.1-113.5-2.6,2.7-6.7,5.3-11,6.9.7.5,1.1,1,1.4,1.7,1.6,4.4-4.5,11.5-5.2,12.3-.5.6-1,1.1-1.4,1.5-.3.3-.6.6-.8.8ZM533.7,432.8h0,0Z"/>
        </g>
        <path class="cls-4" d="M508,453.6c-7.4,0-14.9-2.1-20.7-6.2-1.1-.8-1.4-2.3-.6-3.3.8-1.1,2.3-1.4,3.3-.6,7.7,5.4,19.5,6.8,28.6,3.5,5.2-1.9,12-6.3,14.6-16.2.3-1.3,1.6-2,2.9-1.7,1.3.3,2,1.6,1.7,2.9-2.4,9.3-8.7,16.2-17.6,19.5-3.9,1.4-8.1,2.1-12.3,2.1Z"/>
        <g>
          <path class="cls-2" d="M514.7,435.5c-5.4,4.2-26.3,8.4-27.6,1,1,12,7.8,60.8,33.3,110.2,5.2,10.2,10.9,6.3,9.6-1.3-.6-3.7-2.1-8.8-3.2-13.1-1.5-7-3.1-14.9-4.5-24-3.7-24.5-7-68.8-7.5-72.7Z"/>
          <path class="cls-4" d="M526.7,555.2c-2.1,0-5.3-1.3-8.5-7.5-28.7-55.7-33.3-108.8-33.5-111.1-.1-1.3.8-2.4,2.1-2.6,1.3-.2,2.5.7,2.7,2,0,.2.2.9,1.6,1.4,5.4,2.1,18.5-1,22.1-3.9.7-.5,1.6-.7,2.4-.3.8.3,1.4,1.1,1.5,1.9.1,1,.4,4.1.8,8.8,1.2,14.7,3.8,45.2,6.7,63.9,1.5,9.1,3.1,17,4.5,23.8.3,1.1.6,2.1.9,3.2.9,3.5,1.9,7.1,2.4,10,.8,4.9-.8,9-4,10-.4.1-.9.2-1.6.2ZM490.2,442.2c2,15.5,9.2,58.5,32.3,103.3,2.3,4.5,4,5,4.3,4.9.4-.1,1.3-1.7.8-4.7-.5-2.7-1.4-6.2-2.3-9.6-.3-1.1-.6-2.2-.9-3.3,0,0,0,0,0-.1-1.4-6.8-3.1-14.9-4.6-24.1-2.9-18.8-5.5-49.5-6.7-64.2-.2-1.9-.3-3.6-.4-4.9-6.1,2.7-16.4,4.7-22.5,2.9Z"/>
        </g>
        <path class="cls-3" d="M503.2,364.4c20,3.1,33.6,21.1,30.5,40.9-1.1,7.1-4.4,13.6-8.8,18.7-13.5,14.9-21.9,22.7-40.2,20-20-3.1-30.3-24-27.3-43.8,3.1-19.8,26-38.8,45.8-35.7Z"/>
        <g>
          <path class="cls-3" d="M531.9,355.9c7.8,2.1,27.9,32.6,26.6,45.3-.8,8.9.5,20.9-6.3,26.3,0,0-19.1,5-26.6.3-17.7-11.2-38.3-21.6-35.2-41.5,3.1-19.8,33.8-32.5,41.5-30.3Z"/>
          <path class="cls-6" d="M535.3,430.1c-3.8,0-7.4-.5-9.9-2.1-1.7-1.1-3.5-2.2-5.2-3.3-16.2-10-32.9-20.4-30.1-38.5,1.3-8,7.3-16,17.1-22.3,10-6.5,20.7-9.4,24.7-8.2h0c3.1.9,9.6,7,16.9,18.8,6.8,11,10.5,21,9.9,26.7-.2,1.9-.2,3.8-.3,5.9-.3,7.6-.6,16.2-6.1,20.5,0,0,0,0,0,0-.5.1-9.1,2.4-16.9,2.4ZM529.9,356c-4.9,0-14.1,3-22.4,8.4-9.7,6.3-15.6,14.1-16.9,22-2.8,17.9,13.8,28.1,29.9,38,1.8,1.1,3.5,2.2,5.2,3.3,7.1,4.5,25.3,0,26.4-.3,5.3-4.2,5.6-12.3,5.9-20.1,0-2.1.2-4.1.3-6,1.3-12.9-19.1-43-26.4-45h0c-.5-.1-1.2-.2-2-.2Z"/>
        </g>
        <path class="cls-4" d="M537.9,434.2c-4,0-7.5-.8-10.1-1.8-2-.8-4.5-2.1-5.4-4.3-.5-1.2,0-2.6,1.3-3.2,1.2-.5,2.6,0,3.2,1.3,1,1.9,11.3,5.3,20.7,1.2,6.7-2.9,9.9-8.8,10.1-18.6.6-21-17-48.7-33-52-1.3-.3-2.1-1.5-1.9-2.8s1.5-2.1,2.8-1.9c18.2,3.7,37.5,33.4,36.8,56.8-.2,11.8-4.5,19.3-13,22.9-3.9,1.7-7.9,2.3-11.5,2.3Z"/>
        <path class="cls-4" d="M487.8,445.7c-2.1,0-4.2-.2-6.2-.5-11.1-1.7-19.4-8.1-23.4-17.9-4.1-10-3.6-26.4-.9-36,3.5-11.3,11.8-25,24.3-30.1,1.2-.5,2.6,0,3.1,1.3.5,1.2,0,2.6-1.3,3.1-11,4.5-18.4,17.4-21.5,27-2.5,8.8-2.8,24,.7,32.8,4.3,10.6,13.1,14,19.7,15,14.3,2.2,31.7-4.8,41.5-16.6,4.6-5.4,7.9-15.7,5.7-23.6-.4-1.3.4-2.6,1.7-3,1.3-.4,2.6.4,3,1.7,2.8,9.8-1.4,21.7-6.6,28-9.5,11.5-25.1,18.7-39.6,18.7Z"/>
        <path class="cls-3" d="M523.5,369.1c-.8,1.9-5.5,2.4-7-1-.6-1.8-1.6-3.6-2.9-4.9-1.8-1.9-3.4-2.1-5.7-2.4-1.6-.2-2.9-.2-2.9-.2-2.3-7.5,20.4-7.5,22.1-4.7.3.6,1.5,1,1.6,1.5,0,1.6-3.7,1.5-4.4,6.8-.3,2.4-.3,3.6-.8,4.9Z"/>
        <path class="cls-4" d="M514.2,369.1l4.7-2.1v.2l.2.2.2.2v.2h.2l.2.2.2.2h.6v.2h.2l.2-.2h.5v.2l4.5,1.9-.2.5-.3.3-.3.3-.3.5-.3.2-.3.3-.5.2-.3.2-.3.2-.5.2-.3.2h-.5l-.3.2h-2.1l-.3-.2-.5-.2h-.5l-.3-.2-.5-.3-.3-.2-.3-.3-.5-.3-.3-.3-.3-.3-.3-.3-.3-.5-.2-.5-.2-.5ZM511.6,365l3.9-3.6.2.2v.2l.2.2.2.2.2.2.2.2.2.2v.2l.2.2.2.2.2.2v.2l.2.2.2.2v.2l.2.2.2.3v.2l.2.2.2.2v.2l.2.2v.2l.2.2v.2l.2.2v.2l.2.3v.2l.2.2v.2l.2.2-4.7,2.1-.2-.2-.2-.2v-.3l-.2-.2v-.2h-.2v-.3l-.2-.2v-.2l-.2-.2-.2-.2v-.2l-.2-.2v-.2l-.2-.2-.2-.2v-.2l-.2-.2-.2-.2v-.2h-.2v-.2l-.2-.2h-.2v-.2l-.2-.2ZM507.4,363.4l.8-5h1l.2.2h1l.2.2h.5l.2.2h.3l.2.2h.3l.2.2h.3l.2.2h.2l.3.2.2.2.3.2.2.2.2.2.3.2.2.2.2.2.3.2.2.2.2.3.3.2-3.9,3.6-.2-.2-.2-.2-.2-.2-.2-.2h-.2v-.2h-.3v-.2h-.2l-.2-.2h-.3l-.2-.2h-.6l-.2-.2h-.8l-.3-.2h-.3ZM502.5,361.6l4.9-1.9-2.1-1.6h1.1v.2h1.6l.2.2-.8,5h-.6l-.2-.2h-1.8l-2.3-1.6ZM529.1,354.5l-4.4,2.9.3.3-.2-.2h-.3l-.5-.2-.6-.2-.6-.2h-.6l-.8-.2h-1.8l-1-.2-1,.2h-1.9l-1,.2h-1l-1,.2-1,.2-.8.3-.8.2-.6.2-.6.3-.5.2-.5.3-.2.2-.2.2-.2.2v.3l-4.9,1.9-.2-1.1v-1.3l.2-1.1.5-1,.6-1,.8-.8.8-.6.8-.5,1-.5,1-.3,1-.3,1-.3,1.1-.3,1-.2,1.1-.2,1.1-.2h1.1l1.1-.2h4.4l1,.2h1l1,.2.8.2.8.2.8.2.8.3.6.3.6.5.6.8ZM531.1,357.1l-5,.6v.3l.2.3.2.3.2.2v.2l-.2-.2-.2-.2h-.2l-.2-.2-.2-.2h-.2v-.2h-.2l-.2-.2-.2-.2v-.2l-.2-.2-.2-.2,4.4-2.9h.2l.2.2h.2v.2h.2v.2h.3v.2l.2.2.2.2.2.2.2.2.2.3.2.5v.5ZM531.1,357.1c.2,1.3-1,2.6-2.3,2.8-1.5.2-2.6-.8-2.8-2.1l5-.6ZM526.7,364.4l-5-.3.2-.6.2-.6v-.5l.2-.5.2-.5.3-.5.2-.5.2-.5.3-.3.3-.5.2-.3.3-.3.3-.3.2-.2.3-.3.3-.2.2-.2.2-.2.3-.2.2-.2.2-.2h.2v-.2h.2l-.2.2-.2.2v.2l-.2.3v.5l5-.6v1l-.2.6-.3.3-.2.5-.3.3-.3.2-.2.3-.2.2-.3.2-.2.2h-.2l-.2.2-.2.2h-.2l-.2.2v.2h-.2l-.2.2v.2h-.2l-.2.2v.2l-.2.2v.2l-.2.2v.2l-.2.3v.2l-.2.3v.3l-.2.5ZM525.7,370.1l-4.5-1.9v-.3h.2v-.8h.2v-1.6l.2-.2v-1.1l5,.3v1.3l-.2.2v1.5l-.2.2v.8l-.2.2v.5l-.2.2v.2l-.2.3v.3l-.2.2Z"/>
        <path class="cls-4" d="M584.1,389.2c-.5,0-.9-.1-1.4-.4-10.8-7.3-25.6-10.4-31.9-11.7-.8-.2-1.5-.3-2-.4-1.3-.3-2.1-1.6-1.8-2.9.3-1.3,1.6-2.1,2.9-1.8.5.1,1.1.2,1.9.4,6.6,1.4,22,4.6,33.6,12.4,1.1.7,1.4,2.2.6,3.3-.5.7-1.2,1.1-2,1.1Z"/>
        <path class="cls-4" d="M474.8,386.1c1.1-.5,2.6.2,3.2,1.5.6,1.3.2,2.8-1,3.1l-2.3-4.5ZM441.4,419.2l-4.4-2.9,1-1.6,1.1-1.6,1.1-1.5,1.1-1.6,1.1-1.5,1.3-1.5,1.3-1.3,1.3-1.3,1.5-1.3,1.3-1.3,1.5-1.1,1.3-1.1,1.5-1.1,1.5-1.1,1.5-1,1.3-1,1.5-.8,1.3-1,1.5-.8,1.3-.8,1.3-.6,1.1-.8,1.3-.6,1.1-.5,1-.6,1.1-.5,1-.5.8-.3,1-.5.6-.3.6-.2.6-.3,2.3,4.5-.5.3-.6.2-.6.3-.8.3-.8.5-1,.5-1,.5-1.1.5-1,.6-1.3.5-1.1.8-1.3.6-1.1.8-1.3.6-1.5,1-1.3.8-1.3,1-1.3,1-1.5,1-1.3,1.1-1.3,1-1.5,1.1-1.3,1.3-1.1,1.1-1.3,1.3-1.3,1.3-1.1,1.3-1.1,1.3-1.1,1.5-1,1.5-1,1.5-.8,1.5ZM441.4,419.2c-.6,1.1-2.1,1.3-3.2.5-1.3-.6-1.8-2.3-1.1-3.4l4.4,2.9Z"/>
        <path class="cls-4" d="M582.4,412.4c-.7,0-1.3-.3-1.8-.8-10.1-11.3-23.1-17.7-24.6-18.4-1.2-.6-1.7-2-1.1-3.2s2-1.7,3.2-1.1c1.5.7,15.3,7.5,26.1,19.6.9,1,.8,2.5-.2,3.4-.5.4-1,.6-1.6.6Z"/>
        <path class="cls-4" d="M451.9,443.1c-.3,0-.6,0-.8-.2-1.2-.5-1.9-1.9-1.4-3.1,6.6-17.6,23.5-31.6,28.5-35.5,1.1-.8,2.6-.6,3.4.4.8,1.1.6,2.6-.4,3.4-4.8,3.7-20.8,16.9-27,33.3-.4,1-1.3,1.6-2.3,1.6Z"/>
        <path class="cls-3" d="M509.3,363.6c3.2,1.8,6,6.5,4.9,8.8-1.1,2.1-6.2.8-9.4-1-3.2-1.9-7.6-7-5-7.8,2.6-.6,6.3-1.8,9.6,0Z"/>
        <path class="cls-3" d="M529.5,359.5c-1.9.8-2.6,3.4-2.6,5.8.2,2.3,3.2,2.3,5.2.8,1.8-1.5,3.6-1.5,2.9-3.2-.5-1-2.1-2.4-3.4-3.2-1-.5-1.3-.6-2.1-.2Z"/>
      </g>
    </g>
  </g>
</svg>